inDegrees=no
num_controls=7
num_derivatives=13
num_iterations=37
num_multipliers=7
num_parameters=0
num_slacks=7
num_states=26
objective=0.426558
objective_accelerations=0.058800
objective_balance=0.001146
objective_effort=0.015532
objective_height=0.345128
objective_ligament=0.005951
solver_duration=545.586463
status=Solve_Succeeded
success=true
DataType=double
version=3
OpenSimVersion=4.5
endheader
time	/jointset/ground_pelvis/pelvis_tilt/value	/jointset/ground_pelvis/pelvis_tx/value	/jointset/ground_pelvis/pelvis_ty/value	/jointset/hip_l/hip_flexion_l/value	/jointset/hip_l/hip_adduction_l/value	/jointset/hip_l/hip_rotation_l/value	/jointset/back/lumbar_extension/value	/jointset/patellofemoral_l/patellar_flexion_l/value	/jointset/knee_l/knee_flexion_l/value	/jointset/knee_l/knee_adduction_l/value	/jointset/knee_l/knee_rotation_l/value	/jointset/ankle_l/ankle_angle_l/value	/jointset/subtalar_l/subtalar_angle_l/value	/jointset/ground_pelvis/pelvis_tilt/speed	/jointset/ground_pelvis/pelvis_tx/speed	/jointset/ground_pelvis/pelvis_ty/speed	/jointset/hip_l/hip_flexion_l/speed	/jointset/hip_l/hip_adduction_l/speed	/jointset/hip_l/hip_rotation_l/speed	/jointset/back/lumbar_extension/speed	/jointset/patellofemoral_l/patellar_flexion_l/speed	/jointset/knee_l/knee_flexion_l/speed	/jointset/knee_l/knee_adduction_l/speed	/jointset/knee_l/knee_rotation_l/speed	/jointset/ankle_l/ankle_angle_l/speed	/jointset/subtalar_l/subtalar_angle_l/speed	/forceset/tau_hip_flexion_l	/forceset/tau_hip_adduction_l	/forceset/tau_hip_rotation_l	/forceset/tau_knee_flexion_l	/forceset/tau_ankle_angle_l	/forceset/tau_subtalar_angle_l	/forceset/tau_lumbar_extension	lambda_cid13_p0	lambda_cid13_p1	lambda_cid13_p2	lambda_cid13_p3	lambda_cid13_p4	lambda_cid13_p5	lambda_cid14_p0	/jointset/ground_pelvis/pelvis_tilt/accel	/jointset/ground_pelvis/pelvis_tx/accel	/jointset/ground_pelvis/pelvis_ty/accel	/jointset/hip_l/hip_flexion_l/accel	/jointset/hip_l/hip_adduction_l/accel	/jointset/hip_l/hip_rotation_l/accel	/jointset/back/lumbar_extension/accel	/jointset/patellofemoral_l/patellar_flexion_l/accel	/jointset/knee_l/knee_flexion_l/accel	/jointset/knee_l/knee_adduction_l/accel	/jointset/knee_l/knee_rotation_l/accel	/jointset/ankle_l/ankle_angle_l/accel	/jointset/subtalar_l/subtalar_angle_l/accel	gamma_cid13_p0	gamma_cid13_p1	gamma_cid13_p2	gamma_cid13_p3	gamma_cid13_p4	gamma_cid13_p5	gamma_cid14_p0
0.5	-0.2142944209710394	0.03429076445567673	0.7702787511580148	0.99119065159193	-0.3627030956901809	-0.002550636296448949	-0.4016074482832619	0.9707422135080667	0.9707422135080082	-0.02832121215900186	-0.174479004558256	0.3235450599434714	0.1688009120886369	-0.7400567361042013	-0.1700362740809382	-0.5315387947227705	2.394562655609938	0.03895919146043419	0.5313486698150416	-0.3039400964530533	2.020351922461943	2.020351922462049	0.3234144809456568	0.001096909330017225	0.5336087394968554	0.2823465462294698	-0.1041828614635813	0.08138793024748218	-0.002744563156899631	-0.1974829175240512	0.007641833787513009	-0.01849151656786589	0.1166763765123923	-25.06717862539049	17.41961048750236	-8.768990799044898	1.733091133198203	-439.5140992726171	-22.87669326819447	-4.499337110245102	0.3362201935428287	0.3569280710180937	-0.4759301424439804	-1.15384000957595	0.1193062652894623	-0.8383559318618939	1.42577833979253	-1.642651780201805	-1.642651780201805	-0.1089985058346436	-0.002100802124004237	-0.981079692371244	0.0816273338015189	-4.906528650616846e-07	1.304462922627059e-07	7.054600606475274e-06	4.338010171909905e-07	-1.387301155438778e-06	-9.932873628378905e-07	-8.369085686059401e-07
0.51	-0.2216760506028789	0.0326085846340028	0.7649409321191054	1.015073453689235	-0.3623103640533536	0.002728343656782704	-0.4045764326455556	0.9908598333967948	0.990859833396745	-0.02510380682849147	-0.1744674869542117	0.3288303727215307	0.1716235289838441	-0.7361609939977866	-0.1663748428913268	-0.5358989569478572	2.381658530037837	0.03957330374157579	0.5244549351771507	-0.2898293049408484	2.002877008354464	2.002877008354509	0.3199911006227317	0.00120317904062793	0.5233737990803196	0.2821049553031386	-0.1088218256095006	0.08245627885910545	-0.003231242417168395	-0.2002047087829734	0.006444021302028576	-0.01795247561452304	0.120249559073214	-25.66831413147208	17.50193707527526	-9.023333288167846	1.820007379587503	-442.9528701076572	-22.86656476380049	-3.893563191351698	0.4324563852038432	0.3745704304166676	-0.3974232613480265	-1.409637304926749	0.02928067948505575	-0.6145382422940584	1.407850216754285	-1.844004045483656	-1.844004045493092	-0.4702260329920002	0.01782574754653048	-1.056700084672409	-0.08873294964507865	-4.667391951222604e-07	5.366952211623347e-07	7.004973796527927e-06	4.810695935269195e-07	-1.324272279775733e-06	-5.512968558165664e-07	-8.082259243833222e-07
0.52	-0.2290154817804563	0.0309637830817208	0.7595632386581845	1.038817026836044	-0.3619121278997228	0.007938455061124989	-0.4074034849607599	1.010793885580545	1.010793885580526	-0.02192287894866709	-0.1744547396751052	0.3340109363217503	0.1744413938410289	-0.7316170452508141	-0.1625606202025509	-0.5395136791250968	2.366716865509755	0.04006009482105598	0.5175749600375995	-0.2755536870358155	1.983638381468482	1.983638381468464	0.3161189908009828	0.001342844346949611	0.5126589039286812	0.2813961386250172	-0.1134607897553136	0.08352462747070978	-0.003717921677169278	-0.2029265000418771	0.005246208816536737	-0.01741343466121289	0.1238227416341394	-26.26445777086845	17.57427610770706	-9.265670128801878	1.864492298607781	-446.3081225283383	-22.97364660717359	-3.337792719955971	0.4658615216544233	0.3874863708508976	-0.3268421328746282	-1.561347800772233	0.093842024957166	-0.8356040321940533	1.458743618358187	-1.995394335902666	-1.995394335902666	-0.1987444055993625	0.0045783170180356	-1.077070639391818	-0.01181781655658706	-4.409580937001787e-07	8.821184155931172e-07	6.908259214062781e-06	5.167360417280602e-07	-1.247890890351944e-06	-1.125687732130952e-07	-7.822197917857658e-07
0.53	-0.2363065026329532	0.02935782239799813	0.7541531378488068	1.062401518603626	-0.3615091840161254	0.0130793178727991	-0.4100869617332473	1.030527120301489	1.030527120301403	-0.01878175364310757	-0.1744404533024739	0.339082224535724	0.1772505132608889	-0.7264889228861444	-0.1586119664670932	-0.5423766995939789	2.349858912662626	0.0405318519139732	0.5104928243147141	-0.2611326033520448	1.962728856619838	1.962728856619861	0.3121512159530678	0.001469250649684641	0.5015335559811813	0.2803838722801907	-0.1179683082928128	0.08433148415890382	-0.004053222543037771	-0.2060287534797454	0.004323836503717482	-0.01702477097633905	0.1272652628021676	-26.7994194337484	17.72264232824756	-9.544610773811634	1.917470855866976	-449.8103707412276	-23.03781270059094	-2.83080037989211	0.5510000251440316	0.4015944799394347	-0.2468060847515156	-1.796450699946488	0.0232077511824512	-0.6609547051084456	1.43515035992068	-2.180533762042973	-2.180533762036848	-0.4888725325693464	0.01124351158272339	-1.140011501462887	-0.1534985120909066	-4.142532635076217e-07	1.186132997953173e-06	6.769410001895929e-06	5.454960891784456e-07	-1.173876385696016e-06	2.791935818559228e-07	-7.519280557554312e-07
0.54	-0.2435432997755537	0.02779195617263834	0.7487182520185697	1.085807744508089	-0.3611016495216542	0.01814607205468386	-0.4126259557455865	1.050042899333396	1.050042899333268	-0.01567892178759384	-0.1744259885218958	0.3440403103444206	0.1800479965235711	-0.7207723032706037	-0.1545417285299745	-0.5444706832969897	2.33106369288497	0.04097821699583355	0.5027532340809135	-0.2466571350068723	1.940147243663295	1.940147243663361	0.3084603007778751	0.001378525939676023	0.490018422872332	0.2790689071895505	-0.1224758268302101	0.08513834084704699	-0.004388523408281416	-0.2091310069175945	0.003401464190878284	-0.01663610729155785	0.1307077839702984	-27.33094105155891	17.862336672228	-9.812947464027394	1.931133305109611	-453.2503233223302	-23.21298281430068	-2.371196350250613	0.5835609718286817	0.4118032111830496	-0.1730347797003839	-1.948801186877769	0.08876362274579105	-0.9670949343771659	1.469620550638622	-2.329811957482206	-2.329811957482207	-0.1433724710548914	-0.03884788553087058	-1.15502767166179	-0.07235756571940702	-3.865264355264537e-07	1.444333796745615e-06	6.583943752612294e-06	5.666150123939528e-07	-1.102480562059848e-06	6.189938553974599e-07	-7.168948010335123e-07
0.55	-0.2507201250306299	0.026267348326808	0.7432662601595452	1.109016682861196	-0.3606897323297515	0.02313457796164599	-0.4150198812223363	1.069324909194283	1.069324909194205	-0.01261351331471671	-0.1744123220933249	0.3488814738417332	0.1828308234162186	-0.714492547025092	-0.1503643962496939	-0.5457968123926311	2.310406436447515	0.04138433286776876	0.4950652123457261	-0.2321314826543175	1.915998660932916	1.915998660932931	0.3044435449947888	0.001391005530532251	0.4781559267245848	0.2774128202553202	-0.1269764551783071	0.08576282361008657	-0.004536596117166975	-0.2123497508837662	0.002483360248211055	-0.01640141938911047	0.1341059339400533	-27.8851314962247	18.08606938769929	-10.10976034058327	2.017465730787972	-456.7580955021079	-23.28648056032226	-1.957483816831042	0.6652009909879849	0.4231305211177846	-0.09298326474303018	-2.171856633084503	0.01232335235431371	-0.6526917174632891	1.443509230973667	-2.495652010624149	-2.495652010631793	-0.5573237767444776	0.02803909485042586	-1.210557660267791	-0.2258065877159069	-2.970263092707589e-07	7.270941913288824e-07	4.911708256533088e-06	3.7015586500404e-07	-8.4298374257856e-07	2.995808233936468e-07	-5.673374269725863e-07
